<?xml version="1.0" encoding="UTF-8" standalone="no"?>
<!-- Created with Inkscape (http://www.inkscape.org/) -->
<svg
   xmlns:dc="http://purl.org/dc/elements/1.1/"
   xmlns:cc="http://web.resource.org/cc/"
   xmlns:rdf="http://www.w3.org/1999/02/22-rdf-syntax-ns#"
   xmlns:svg="http://www.w3.org/2000/svg"
   xmlns="http://www.w3.org/2000/svg"
   xmlns:xlink="http://www.w3.org/1999/xlink"
   xmlns:sodipodi="http://sodipodi.sourceforge.net/DTD/sodipodi-0.dtd"
   xmlns:inkscape="http://www.inkscape.org/namespaces/inkscape"
   width="744.09448819"
   height="1052.3622047"
   id="svg6044"
   sodipodi:version="0.32"
   inkscape:version="0.45"
   sodipodi:docbase="/home/andreas/project/nemein"
   sodipodi:docname="thumbs-up.svg"
   inkscape:output_extension="org.inkscape.output.svg.inkscape"
   inkscape:export-filename="/home/andreas/project/nemein/thumbs-up.png"
   inkscape:export-xdpi="90"
   inkscape:export-ydpi="90"
   sodipodi:modified="TRUE">
  <defs
     id="defs6046">
    <linearGradient
       inkscape:collect="always"
       id="linearGradient6218">
      <stop
         style="stop-color:#c17d11;stop-opacity:1;"
         offset="0"
         id="stop6220" />
      <stop
         style="stop-color:#c17d11;stop-opacity:0;"
         offset="1"
         id="stop6222" />
    </linearGradient>
    <linearGradient
       inkscape:collect="always"
       xlink:href="#linearGradient6218"
       id="linearGradient6224"
       x1="228.69197"
       y1="170.62277"
       x2="227.94643"
       y2="184.55135"
       gradientUnits="userSpaceOnUse"
       gradientTransform="matrix(5.7750622,0,0,5.7750622,-943.1155,-430.25936)" />
  </defs>
  <sodipodi:namedview
     id="base"
     pagecolor="#ffffff"
     bordercolor="#666666"
     borderopacity="1.0"
     gridtolerance="10000"
     guidetolerance="10"
     objecttolerance="10"
     inkscape:pageopacity="0.0"
     inkscape:pageshadow="2"
     inkscape:zoom="0.35"
     inkscape:cx="375"
     inkscape:cy="520"
     inkscape:document-units="px"
     inkscape:current-layer="layer1"
     inkscape:window-width="872"
     inkscape:window-height="626"
     inkscape:window-x="4"
     inkscape:window-y="51" />
  <metadata
     id="metadata6049">
    <rdf:RDF>
      <cc:Work
         rdf:about="">
        <dc:format>image/svg+xml</dc:format>
        <dc:type
           rdf:resource="http://purl.org/dc/dcmitype/StillImage" />
      </cc:Work>
    </rdf:RDF>
  </metadata>
  <g
     inkscape:label="Layer 1"
     inkscape:groupmode="layer"
     id="layer1">
    <path
       style="fill:#fff9c4;fill-opacity:1;stroke:none;stroke-width:1;stroke-linecap:round;stroke-linejoin:round;stroke-miterlimit:4;stroke-dashoffset:0;stroke-opacity:1"
       d="M 256.28539,374.29049 L 276.44192,375.23512 L 275.0652,396.75375 L 256.74826,411.74454 L 229.33745,448.96643 L 215.21096,431.92532 L 236.21896,393.99702 L 256.28539,374.29049 z "
       id="rect6200"
       sodipodi:nodetypes="cccccccc" />
    <path
       style="opacity:1;fill:#fff9c4;fill-opacity:1;stroke:none;stroke-width:1;stroke-linecap:round;stroke-linejoin:round;stroke-miterlimit:4;stroke-dasharray:none;stroke-dashoffset:0;stroke-opacity:1"
       d="M 201.93345,392.89422 L 171.3556,421.22736 L 174.93613,445.35771 L 194.43996,467.92862 L 214.22226,480.36169 L 223.37995,472.80745 L 252.45127,491.38859 L 274.28822,453.56586 L 247.40456,437.17237 L 248.5117,420.97066 L 201.93345,392.89422 z "
       id="rect6202"
       sodipodi:nodetypes="ccccccccccc" />
    <path
       style="fill:url(#linearGradient6224);fill-opacity:1;fill-rule:evenodd;stroke:none;stroke-width:0.99999994px;stroke-linecap:butt;stroke-linejoin:miter;stroke-opacity:1"
       d="M 469.97003,375.00088 L 349.72446,396.77159 L 312.66224,421.59518 L 268.28112,534.04713 L 295.66872,572.55057 L 316.93088,566.48028 L 318.0137,640.2928 L 377.7495,673.31894 L 452.46437,650.39916 L 498.84534,518.47508 L 511.47829,428.4202 L 469.97003,375.00088 z "
       id="path5079"
       sodipodi:nodetypes="cccccccccccc" />
    <path
       style="fill:#c17d11;fill-rule:evenodd;stroke:none;stroke-width:1px;stroke-linecap:butt;stroke-linejoin:miter;stroke-opacity:1"
       d="M 342.83382,224.02349 L 374.90407,172.34153 L 433.51472,134.26256 L 485.55871,181.51937 L 502.91277,229.90406 L 449.91803,257.60501 L 381.29372,254.17792 L 336.00799,236.96748 L 342.83382,224.02349 z "
       id="path5766" />
    <path
       sodipodi:nodetypes="ccccccc"
       style="fill:#fff9c4;fill-opacity:1;fill-rule:evenodd;stroke:none;stroke-width:1px;stroke-linecap:butt;stroke-linejoin:miter;stroke-opacity:1"
       d="M 351.06028,252.16438 L 348.59618,301.23052 L 358.91622,329.79889 L 373.75824,316.57429 L 385.34469,271.09203 L 355.56876,251.59796 L 351.06028,252.16438 z "
       id="path5768" />
    <path
       style="fill:#fff9c4;fill-opacity:1;fill-rule:evenodd;stroke:none;stroke-width:1px;stroke-linecap:butt;stroke-linejoin:miter;stroke-opacity:1"
       d="M 398.98262,272.26778 L 461.06211,274.27068 L 496.71492,263.44984 L 467.46556,329.04328 L 422.66037,353.15058 L 384.52146,319.76518 L 398.98262,272.26778 z "
       id="path5770" />
    <path
       style="fill:#2e3436;fill-rule:evenodd;stroke:none;stroke-width:1px;stroke-linecap:butt;stroke-linejoin:miter;stroke-opacity:1"
       d="M 354.58914,252.00066 L 339.06537,281.34802 L 325.48727,296.87809 L 344.76108,293.24436 L 338.52326,315.65299 L 316.24734,347.58637 L 343.4096,349.15869 L 333.08702,376.14844 L 334.81151,393.40502 L 347.06585,379.66182 L 344.13737,397.60355 L 325.9662,430.52441 L 350.19385,417.40606 L 354.11125,427.97235 L 366.25199,413.44991 L 371.90716,432.44895 L 382.63717,419.04965 L 380.55786,446.36471 L 405.46738,437.92157 L 421.8771,412.96094 L 420.74681,437.80133 L 445.25553,410.31481 L 445.99723,431.69582 L 467.53151,378.38143 L 477.43944,359.41208 L 484.91335,372.63853 L 480.27424,346.25978 L 494.01976,315.58236 L 504.61555,333.92067 L 503.35953,292.71704 L 500.39698,262.41818 L 463.60545,269.33578 L 456.30098,323.82424 L 426.45187,337.36405 L 395.26475,317.38747 L 384.50471,310.47484 L 365.7055,322.79397 L 353.19781,296.77778 L 361.13407,253.42485 L 354.58914,252.00066 z "
       id="path5772"
       sodipodi:nodetypes="cccccccccccccccccccccccccccccccccccccccc" />
    <path
       sodipodi:type="arc"
       style="fill:#204a87;fill-opacity:1;stroke:none;stroke-width:3;stroke-linecap:round;stroke-linejoin:miter;stroke-miterlimit:4;stroke-dasharray:none;stroke-dashoffset:0;stroke-opacity:1"
       id="path5776"
       sodipodi:cx="6.4285712"
       sodipodi:cy="-98.352104"
       sodipodi:rx="7.8571429"
       sodipodi:ry="7.8571429"
       d="M 14.285714 -98.352104 A 7.8571429 7.8571429 0 1 1  -1.4285717,-98.352104 A 7.8571429 7.8571429 0 1 1  14.285714 -98.352104 z"
       transform="matrix(0.9240452,-0.1360501,0.1354026,0.9284643,445.24115,393.39873)" />
    <path
       sodipodi:type="arc"
       style="fill:#204a87;fill-opacity:1;stroke:none;stroke-width:3;stroke-linecap:round;stroke-linejoin:miter;stroke-miterlimit:4;stroke-dasharray:none;stroke-dashoffset:0;stroke-opacity:1"
       id="path5778"
       sodipodi:cx="-58.57143"
       sodipodi:cy="-123.3521"
       sodipodi:rx="5"
       sodipodi:ry="5"
       d="M -53.57143 -123.3521 A 5 5 0 1 1  -63.57143,-123.3521 A 5 5 0 1 1  -53.57143 -123.3521 z"
       transform="matrix(1.0856926,-0.15985,0.1590892,1.0908838,452.09471,415.10337)" />
    <path
       style="fill:none;fill-rule:evenodd;stroke:#8f5902;stroke-width:5.77506208;stroke-linecap:butt;stroke-linejoin:miter;stroke-miterlimit:4;stroke-dasharray:none;stroke-opacity:1"
       d="M 392.67873,245.33814 L 404.7735,187.04605 L 433.19357,137.49348"
       id="path5780" />
    <path
       style="fill:#2e3436;fill-opacity:1;fill-rule:evenodd;stroke:none;stroke-width:1px;stroke-linecap:butt;stroke-linejoin:miter;stroke-opacity:1"
       d="M 472.1977,290.11214 L 445.62317,284.97095 L 411.78633,288.92473 L 424.69267,278.44473 L 449.24356,266.43993 L 475.68289,266.43993 L 487.95831,264.72497 L 472.1977,290.11214 z "
       id="path5784"
       sodipodi:nodetypes="cccccccc" />
    <path
       style="fill:#2e3436;fill-opacity:1;fill-rule:evenodd;stroke:none;stroke-width:1px;stroke-linecap:butt;stroke-linejoin:miter;stroke-opacity:1"
       d="M 378.24298,272.44236 L 360.26978,258.7226 L 340.5849,249.29036 L 343.15249,268.15489 L 378.24298,272.44236 z "
       id="path5788" />
    <path
       style="fill:#888a85;fill-rule:evenodd;stroke:none;stroke-width:1px;stroke-linecap:butt;stroke-linejoin:miter;stroke-opacity:1"
       d="M 325.30455,250.4824 L 328.32675,227.75123 L 396.78365,246.32568 L 460.07319,245.76267 L 504.89836,227.22391 L 504.33887,264.78959 L 455.16202,278.99243 L 411.4858,280.14456 L 401.58394,331.7463 L 366.7405,320.95773 L 386.51645,271.88189 L 325.30455,250.4824 z "
       id="path5790"
       sodipodi:nodetypes="cccccccccccc" />
    <path
       style="fill:#2e3436;fill-opacity:1;fill-rule:evenodd;stroke:none;stroke-width:1px;stroke-linecap:butt;stroke-linejoin:miter;stroke-opacity:1"
       d="M 498.9199,269.01243 L 523.74002,265.58245 L 498.06409,275.87228 L 527.16347,287.01954 L 498.06409,288.7345 L 522.02829,301.59678 L 490.36131,294.73687 L 498.9199,269.01243 z "
       id="path5792" />
    <path
       style="fill:#fff9c4;fill-opacity:1;fill-rule:evenodd;stroke:none;stroke-width:1px;stroke-linecap:butt;stroke-linejoin:miter;stroke-opacity:1"
       d="M 392.62139,355.83247 L 359.92651,333.13075 L 365.06169,379.4348 L 404.4315,399.15692 L 417.95179,385.49809 L 434.21321,347.76892 L 392.62139,355.83247 z "
       id="path5794"
       sodipodi:nodetypes="ccccccc" />
    <path
       sodipodi:type="arc"
       style="fill:#888a85;fill-opacity:1;stroke:#555753;stroke-width:2.77139187;stroke-linecap:round;stroke-linejoin:miter;stroke-miterlimit:4;stroke-dasharray:none;stroke-dashoffset:0;stroke-opacity:1"
       id="path6286"
       sodipodi:cx="563.4126"
       sodipodi:cy="231.7943"
       sodipodi:rx="8.8388348"
       sodipodi:ry="8.8388348"
       d="M 572.25143 231.7943 A 8.8388348 8.8388348 0 1 1  554.57376,231.7943 A 8.8388348 8.8388348 0 1 1  572.25143 231.7943 z"
       transform="matrix(-2.0818464,0,0,2.0857815,1574.0304,-221.80594)" />
    <path
       style="fill:none;fill-rule:evenodd;stroke:#babdb6;stroke-width:5.77506208px;stroke-linecap:butt;stroke-linejoin:miter;stroke-opacity:1"
       d="M 410.0783,270.24102 L 406.65485,252.66271 L 399.80793,260.80873 L 394.24481,250.51895 L 389.10963,267.23984"
       id="path6288" />
    <path
       style="fill:#fff9c4;fill-opacity:1;fill-rule:evenodd;stroke:none;stroke-width:1px;stroke-linecap:butt;stroke-linejoin:miter;stroke-opacity:1"
       d="M 404.50208,398.74106 L 378.97312,401.58609 L 383.07775,389.59573 L 370.33184,385.45363 L 367.52337,392.64785 L 364.99424,378.87606 L 404.50208,398.74106 z "
       id="path5590"
       sodipodi:nodetypes="ccccccc" />
    <path
       style="fill:#eeeeec;fill-rule:evenodd;stroke:#534e2c;stroke-width:2.88753104;stroke-linecap:butt;stroke-linejoin:miter;stroke-miterlimit:4;stroke-dasharray:none;stroke-opacity:1"
       d="M 425.93004,354.35532 L 390.02278,364.30541 L 364.26849,343.34672 L 381.35626,379.7623 L 408.8656,379.83264 L 425.93004,354.35532 z "
       id="path5659"
       sodipodi:nodetypes="cccccc" />
    <path
       style="fill:#e9b96e;fill-opacity:1;fill-rule:evenodd;stroke:none;stroke-width:1px;stroke-linecap:butt;stroke-linejoin:miter;stroke-opacity:1"
       d="M 339.77327,505.32977 L 387.21131,464.07937 L 455.27457,441.39163 L 395.46139,472.32945 L 339.77327,505.32977 z "
       id="path6111"
       sodipodi:nodetypes="ccccc" />
    <path
       style="fill:#fff9c4;fill-opacity:1;fill-rule:evenodd;stroke:none;stroke-width:0.99999994px;stroke-linecap:butt;stroke-linejoin:miter;stroke-opacity:1"
       d="M 358.10424,455.09747 L 388.12949,513.49657 L 408.14637,501.81674 L 431.49939,461.77165 L 406.4783,441.74911 L 358.10424,455.09747 z "
       id="path5127"
       sodipodi:nodetypes="cccccc" />
    <path
       style="fill:#c17d11;fill-opacity:1;fill-rule:evenodd;stroke:none;stroke-width:0.99999994px;stroke-linecap:butt;stroke-linejoin:miter;stroke-opacity:1"
       d="M 346.84715,502.65719 L 268.44773,427.57271 L 220.07367,489.30888 L 341.84288,557.71923 L 380.20853,546.03945 L 346.84715,502.65719 z "
       id="path5133" />
    <path
       style="fill:#5f3b01;fill-opacity:1;fill-rule:evenodd;stroke:none;stroke-width:1px;stroke-linecap:butt;stroke-linejoin:miter;stroke-opacity:1"
       d="M 484.14988,478.51702 L 388.27294,543.05929 L 341.15848,555.78828 L 223.99667,489.70176 L 344.25224,571.43413 L 402.10652,552.7678 L 484.14988,478.51702 z "
       id="path5138"
       sodipodi:nodetypes="ccccccc" />
    <path
       style="fill:#e9b96e;fill-opacity:1;fill-rule:evenodd;stroke:none;stroke-width:1px;stroke-linecap:butt;stroke-linejoin:miter;stroke-opacity:1"
       d="M 299.46126,458.12707 L 351.96454,503.33818 L 264.45913,436.25073 L 270.29281,427.50018 L 299.46126,458.12707 z "
       id="path6207" />
    <path
       style="fill:#5f3b01;fill-opacity:1;fill-rule:evenodd;stroke:none;stroke-width:1px;stroke-linecap:butt;stroke-linejoin:miter;stroke-opacity:1"
       d="M 316.23314,567.50882 L 316.23314,543.44483 L 306.02416,568.96726 L 316.23314,567.50882 z "
       id="path6210" />
    <path
       style="fill:#e9b96e;fill-opacity:1;fill-rule:evenodd;stroke:none;stroke-width:1px;stroke-linecap:butt;stroke-linejoin:miter;stroke-opacity:1"
       d="M 358.336,455.82928 L 321.65298,478.78244 L 327.53846,481.75111 L 358.336,455.82928 z "
       id="path6212"
       sodipodi:nodetypes="cccc" />
    <path
       style="fill:#e9b96e;fill-opacity:1;fill-rule:evenodd;stroke:none;stroke-width:1px;stroke-linecap:butt;stroke-linejoin:miter;stroke-opacity:1"
       d="M 231.64459,474.16973 L 222.16482,470.5237 L 211.22668,477.81581 L 178.41214,439.1676 L 175.49528,445.00127 L 212.68506,482.92027 L 222.89404,474.16973 L 231.64459,474.16973 z "
       id="path6216"
       sodipodi:nodetypes="cccccccc" />
    <path
       style="fill:#fff9c4;fill-opacity:1;fill-rule:evenodd;stroke:none;stroke-width:1px;stroke-linecap:butt;stroke-linejoin:miter;stroke-opacity:1"
       d="M 406.28969,441.90728 L 440.83692,442.42288 L 441.86817,446.0323 L 416.08662,454.28238 L 406.28969,441.90728 z "
       id="path5035"
       sodipodi:nodetypes="ccccc" />
    <path
       style="fill:#e9b96e;fill-opacity:1;fill-rule:evenodd;stroke:none;stroke-width:1px;stroke-linecap:butt;stroke-linejoin:miter;stroke-opacity:1"
       d="M 275.76191,376.09081 L 275.39727,397.96715 L 259.35461,409.63456 L 247.32261,424.94801 L 247.32261,435.52157 L 255.34394,442.44904 L 252.42713,446.82435 L 244.04116,437.34458 L 244.04116,420.93734 L 260.44846,402.70703 L 272.84504,396.14413 L 275.76191,376.09081 z "
       id="path6040" />
    <path
       style="fill:#e9b96e;fill-opacity:1;fill-rule:evenodd;stroke:none;stroke-width:1px;stroke-linecap:butt;stroke-linejoin:miter;stroke-opacity:1"
       d="M 274.28822,375.39093 L 255.2099,374.35967 L 233.55342,400.65682 L 229.42835,407.87565 L 201.57355,388.42201 L 168.98961,421.21951 L 175.28714,443.96979 L 180.44346,443.96979 L 174.14593,424.31333 L 203.12046,394.60958 L 230.97526,408.90696 L 257.27241,380.03165 L 274.28822,375.39093 z "
       id="path6042"
       sodipodi:nodetypes="ccccccccccccc" />
  </g>
</svg>
